<svg viewBox="10.106382978723422 76.68000000000004 258.51063829787233 373.81499999999994" fill="none" xmlns="http://www.w3.org/2000/svg" xmlns:xlink="http://www.w3.org/1999/xlink" overflow="visible" width="239.36170212765958px" height="346.12499999999994px"><rect id="Blush Background Color" fill="#ded6d6" x="10.106382978723422" y="76.68000000000004" width="258.51063829787233" height="373.81499999999994"/><g id="Master/Pose/Sitting"><g id="Head/Front" transform="translate(38 73) scale(1 1)"><g id="Head/Front/Wavy"><g id="Head"><path id="SKIN" fill-rule="evenodd" clip-rule="evenodd" d="M92.1433 40.1339C97.9382 50.9351 97.2496 78.333 89.7603 80.2635C86.7737 81.0333 80.4113 79.1476 73.9359 75.2446L78 104H54L62.2616 65.4893C57.6541 60.0807 54.5357 53.4525 55.0568 46.0255C56.5583 24.625 86.3485 29.3328 92.1433 40.1339Z" fill="#b28b67"/></g><path id="hair" fill-rule="evenodd" clip-rule="evenodd" d="M94.4091 44.9836C94.1714 43.5836 93.5904 42.0288 93.1216 40.7043C92.5172 38.9967 91.6025 37.4571 90.5959 36.0061C88.7009 33.2744 86.4276 30.8075 83.9176 28.7601C79.3328 25.0202 73.4966 22.8631 67.7574 23.5636C64.8597 23.9173 62.0468 25.0226 59.6525 26.8624C57.4894 28.5246 55.4087 30.9716 52.6077 31.1474C49.56 31.3385 46.7662 28.6485 44.322 26.9871C41.566 25.1141 38.6342 23.7493 35.4132 23.2188C30.0173 22.3304 24.9482 24.1534 21.2294 28.5805C17.2722 33.2916 14.3955 40.2003 16.9943 46.4425C17.4773 47.6028 18.0988 48.581 18.9907 49.3918C19.8086 50.1353 21.0579 50.9263 21.3895 52.1142C21.7418 53.3769 20.6895 55.006 20.2815 56.1454C19.6969 57.7778 19.2169 59.4913 19.3876 61.2656C19.6679 64.1795 21.4991 66.9612 23.4327 68.8765C25.4004 70.8254 27.8222 71.943 30.4089 72.4582C32.1361 72.8022 33.9013 72.992 35.6567 72.8628C36.5281 72.7988 37.2971 72.5567 38.1414 72.3642C38.9625 72.1769 39.4213 72.395 40.1179 72.8453C43.354 74.9373 46.8335 75.7467 50.5701 75.4356C53.7237 75.1729 57.3584 74.4087 59.931 72.248C62.788 69.8482 62.7311 66.5391 62.0588 63.0035C62.7711 63.3565 64.7416 63.5751 63.5641 62.1681C63.0976 61.6108 62.2163 61.384 61.6178 61.0563C60.9209 60.6747 60.2132 60.1814 59.6721 59.5589C57.4869 57.0454 59.6939 51.93 62.4404 51.0871C66.5209 49.8347 67.4345 55.6055 70.3474 57.0982C72.0222 57.9565 73.7742 56.7834 75.029 55.5855C76.7099 53.9809 77.8554 51.8551 78.8445 49.6918C79.6592 47.9103 80.4173 46.1038 81.2477 44.3311C81.6354 43.5033 82.9778 41.1632 82.3037 40.2272C85.2264 39.6444 88.4816 40.859 90.9987 42.4517C92.0391 43.1101 92.8322 43.8361 93.3872 44.9985C93.5061 45.2475 93.7649 45.9879 94.0899 46.0183C94.6949 46.0748 94.4688 45.3354 94.4091 44.9836" fill="#2c1b18"/></g></g><g id="Lower Body/Sitting" transform="translate(-44 260) scale(1 1)"><g id="Lower Body/Sitting/Torqusie baggy pant"><g id="Seat"><g id="Seat_2"><path id="Seat Stuff" fill-rule="evenodd" clip-rule="evenodd" d="M92.6226 42H169.877L180 166H65L92.6226 42Z" fill="#C5CFD6"/><path id="Seat Stuff_2" fill-rule="evenodd" clip-rule="evenodd" d="M92.6226 42H116.383L130.604 166H65L92.6226 42Z" fill="black" fill-opacity="0.1"/></g></g><g id="Group 10"><path id="Fill 1" fill-rule="evenodd" clip-rule="evenodd" d="M180.438 138.534C180.438 138.534 192.946 108.532 197.151 110.083C200.815 111.433 218.282 120.997 217.593 122.883C216.871 124.858 212.329 130.741 212.329 130.741C212.329 130.741 222.502 139.24 227.934 146.404C230.797 150.18 234.501 158.947 231.517 160.555C228.532 162.163 176.773 144.943 180.438 138.534" fill="#C7D1D9"/><path id="Fill 3" fill-rule="evenodd" clip-rule="evenodd" d="M244.022 163.676C243.816 154.134 243.931 137.887 247.08 137.596C250.969 137.238 270.852 138.347 271.042 140.345C271.241 142.44 273.675 151.704 273.675 151.704C273.675 151.704 287.517 152.994 295.504 157.12C299.714 159.295 301.833 165.613 299.832 168.349C297.831 171.085 243.702 177.834 244.249 170.472C244.249 170.472 244.107 167.658 244.022 163.676Z" fill="#C7D1D9"/><path id="Fill 5" fill-rule="evenodd" clip-rule="evenodd" d="M186.184 119.5C192.116 131.711 206.5 132.781 215.638 132.781C219.131 132.781 233.599 102.815 236.002 98.8681C249.076 77.3997 265.264 50.5728 265.264 50.5728C265.264 50.5728 238.021 32.8648 218.95 39.4028C218.95 39.4028 180.252 107.289 186.184 119.5Z" fill="#2a0752"/><g id="Group 9"><path id="Fill 7" fill-rule="evenodd" clip-rule="evenodd" d="M112.068 -0.000610352C112.068 -0.000610352 111.388 40.6062 132.587 48.3934C153.786 56.1806 207.283 62.3978 239.172 54.2092C232.62 76.1306 236.873 146.964 243.172 158.665C245.166 162.369 268.347 155.68 276.207 151.816C284.067 147.953 297.962 30.7784 282.839 20.8774C267.716 10.9764 171.455 -0.000610352 171.455 -0.000610352H112.068Z" fill="#342a83"/></g></g></g></g><g id="Upper Body" transform="translate(-22 155) scale(1 1)"><g id="Upper Body/Pregnant"><path id="Shirt" fill-rule="evenodd" clip-rule="evenodd" d="M181.729 118.264C162.738 157.816 82.7913 131.11 82.7913 131.11C82.7913 124.256 85.5096 117.385 88.3646 110.169C91.4258 102.431 94.6441 94.2962 94.8366 85.3605C95.1907 68.9211 98.2646 19.1125 111.093 2.28693C111.327 1.52679 111.564 0.764491 111.804 0L112.692 0.417788C112.831 0.274815 112.97 0.135529 113.111 0L141.101 4.32798C141.101 16.9883 149.203 28.9933 156.497 39.8002C158.271 42.4297 159.998 44.9882 161.549 47.468C163.58 50.7162 165.871 54.0224 168.22 57.4104C180.115 74.5688 193.464 93.8252 181.729 118.264Z" fill="#939c53"/><path id="SKIN" fill-rule="evenodd" clip-rule="evenodd" d="M145.863 110.787C147.735 101.127 148.949 94.6775 149.506 91.4391C164.418 108.29 173.033 116.813 175.35 117.009C179.709 117.376 182.93 113.511 183.847 114.598C185.362 119.098 181.081 130.362 172.898 132C168.991 132.782 162.944 124.724 160.453 121.869C159.473 120.746 154.61 117.052 145.863 110.787V110.787ZM171.621 59.2822C175.487 59.2822 177.563 60.8803 179.849 64.1045C182.134 67.3288 184.297 82.5349 180.628 82.5349C176.958 82.5349 161.583 76.6567 161.583 72.7049C161.583 68.7531 172.074 67.0796 172.074 64.1045C172.074 61.1295 167.756 59.2822 171.621 59.2822Z" fill="#b28b67"/><path id="Shade" fill-rule="evenodd" clip-rule="evenodd" d="M106.565 18.7186C96.7476 59.6506 100.747 94.1728 138.058 125.487C137.62 127.06 137.357 128 137.357 128C93.5608 97.3906 93.5398 60.2965 106.565 18.7186Z" fill="black" fill-opacity="0.2"/></g></g></g></svg>