<svg viewBox="10.106382978723422 71.35499999999999 258.51063829787233 373.81499999999994" fill="none" xmlns="http://www.w3.org/2000/svg" xmlns:xlink="http://www.w3.org/1999/xlink" overflow="visible" width="239.36170212765958px" height="346.12499999999994px"><rect id="Blush Background Color" fill="#ded6d6" x="10.106382978723422" y="71.35499999999999" width="258.51063829787233" height="373.81499999999994"/><g id="Master/Pose/Sitting"><g id="Head/Front" transform="translate(38 73) scale(1 1)"><g id="Head/Front/Top"><g id="Head"><path id="SKIN" fill-rule="evenodd" clip-rule="evenodd" d="M73.9354 75.2443C80.411 79.1475 86.7736 81.0333 89.7603 80.2635C97.2496 78.333 97.9382 50.9351 92.1433 40.1339C86.3485 29.3328 56.5583 24.625 55.0568 46.0255C54.5356 53.4529 57.6544 60.0814 62.2623 65.4901L54 104H78L73.9354 75.2443Z" fill="#d4a181"/></g><path id="Hair" fill-rule="evenodd" clip-rule="evenodd" d="M53.6546 45.9098C53.1113 45.9694 52.5592 46 52 46C43.7157 46 37 39.2843 37 31C37 22.7157 43.7157 16 52 16C60.213 16 66.8843 22.6007 66.9985 30.7866C79.0551 26.6097 94.7009 31.4907 92.6071 41.2807C91.3224 47.2878 84.6174 50.4218 77.7742 53.6204C77.456 53.7692 77.1374 53.9181 76.8191 54.0674C75.7648 52.2369 73.7539 51 71.4467 51C68.0465 51 65.29 53.6863 65.29 57C65.29 58.1936 65.6477 59.3058 66.2642 60.2404C63.8546 62.3365 62.1544 64.8595 61.7432 68.1318C57.8595 68.1318 51.5822 56.7286 53.6546 45.9098Z" fill="#2c1b18"/></g></g><g id="Lower Body/Sitting" transform="translate(-44 260) scale(1 1)"><g id="Lower Body/Sitting/Skinny Jeans 1"><g id="Seat"><g id="Seat_2"><path id="Seat Stuff" fill-rule="evenodd" clip-rule="evenodd" d="M92.6226 42H169.877L180 166H65L92.6226 42Z" fill="#C5CFD6"/><path id="Seat Stuff_2" fill-rule="evenodd" clip-rule="evenodd" d="M92.6226 42H116.383L130.604 166H65L92.6226 42Z" fill="black" fill-opacity="0.1"/></g></g><path id="LegBack" fill-rule="evenodd" clip-rule="evenodd" d="M212.323 66.5665C203.642 84.9781 190.077 129.672 190.077 129.672L201.593 134.934C201.593 134.934 230.814 87.9524 248.672 55.8364C247.84 63.0664 246.993 71.2061 246.208 79.7626C244.347 100.033 246.207 143.827 247.208 156.477C247.837 164.428 258.64 162.762 259.648 156.457C259.819 155.389 260.515 151.639 261.554 146.045C266.647 118.613 279.977 46.8178 280 29.2384C280.01 22.1647 266.19 15.8101 257.953 20.7561C252.296 14.7192 241.588 11.2397 235.436 21.212C231.525 27.5517 222.233 45.5497 212.323 66.5665Z" fill="#d4a181"/><path id="LegLower" fill-rule="evenodd" clip-rule="evenodd" d="M190.9 113.125L230.427 19.4873C239.897 4.25483 266.446 22.587 263.217 31.4217C255.885 51.4793 218.6 116.414 216.415 122.39L190.9 113.125Z" fill="#191847"/><path id="shoe" fill-rule="evenodd" clip-rule="evenodd" d="M191.664 124.185C190.971 123.241 189.63 123.017 188.734 123.771C187.099 125.146 184.748 127.264 183.899 128.734C182.547 131.076 180.733 136.021 180.733 136.021C183.45 137.59 229.578 164.222 229.578 164.222C229.578 164.222 235.116 159.027 231.304 156.157C227.491 153.286 225.012 151.315 225.012 151.315L208.152 128.087C207.821 127.631 207.179 127.538 206.733 127.882L203.23 130.579C203.23 130.579 198.409 130.159 196.035 128.788C194.589 127.953 192.824 125.767 191.664 124.185Z" fill="#E4E4E4"/><path id="shoe_2" fill-rule="evenodd" clip-rule="evenodd" d="M247.45 150.284C246.378 149.813 245.104 150.29 244.705 151.391C243.977 153.398 243 156.409 243 158.106C243 160.811 243.901 166 243.901 166C247.039 166 300.303 166 300.303 166C300.303 166 302.502 158.732 297.765 158.152C293.028 157.573 289.895 157.106 289.895 157.106L263.68 145.419C263.165 145.189 262.563 145.43 262.348 145.951L260.663 150.039C260.663 150.039 256.278 152.085 253.537 152.085C251.868 152.085 249.246 151.074 247.45 150.284Z" fill="#E4E4E4"/><path id="Leg and Butt" fill-rule="evenodd" clip-rule="evenodd" d="M282.77 36.433C282.77 63 270.154 124.97 270.146 130.82L243 130.841C243 130.841 248.96 47.8977 247.227 47.0042C245.493 46.1107 176.176 53.925 155.386 53.925C125.408 53.925 113.006 35.0204 112 0H171.386C183.478 1.29387 246.549 14.0153 269.972 18.3884C280 20.2606 282.77 29.1145 282.77 36.433Z" fill="#393f82"/></g></g><g id="Upper Body" transform="translate(-22 155) scale(1 1)"><g id="Upper Body/Pointing Up"><path id="SKIN" fill-rule="evenodd" clip-rule="evenodd" d="M229.36 -9.03758L191.456 2.34084L201.134 18.4626L230.605 1.11849C244.362 0.299262 250.862 -1.05756 250.105 -2.95197C249.466 -4.54928 247.947 -4.82144 246.548 -5.07212C245.458 -5.2674 244.441 -5.44965 243.969 -6.23517C242.892 -8.02905 246.667 -12.6987 250.438 -16.977C254.21 -21.2552 251.192 -21.4545 249.369 -21.1114C243.101 -18.5666 236.431 -14.542 229.36 -9.03758ZM220.005 92.5917L188.107 69.1681L181.055 86.5991L212.643 99.6977C221.577 110.192 226.572 114.566 227.629 112.822C228.521 111.351 227.824 109.974 227.182 108.705C226.682 107.717 226.215 106.795 226.559 105.946C227.344 104.006 233.345 104.21 239.031 104.648C244.717 105.085 243.06 102.555 241.689 101.305C235.885 97.8307 228.657 94.9262 220.005 92.5917Z" fill="#d4a181"/><path id="Coat Back" fill-rule="evenodd" clip-rule="evenodd" d="M138.561 6.08676C155.931 38.4763 181.05 63.3052 217.466 89.1158L203.677 104.663C163.018 89.5528 141.559 80.4362 131.021 49.8347C128.376 42.1544 126.528 17.6708 124.942 4.7888L138.561 6.08676Z" fill="#192566"/><path id="Shirt" fill-rule="evenodd" clip-rule="evenodd" d="M90 114H167C167 114 140.837 34.2081 140.27 4.47156C140.251 3.4609 138.384 1.67996 137.559 1.91319C128.5 4.47156 118.172 0 118.172 0C99.9175 29.3584 93.6048 65.5046 90 114Z" fill="#F2F2F2"/><path id="Coat Front" fill-rule="evenodd" clip-rule="evenodd" d="M137.486 44.7908C149.512 96.3771 148.958 138.606 122.407 138.606H81.3511C74.8304 94.784 91.9681 34.0236 107.856 3.37659C108.463 2.20628 109.754 0 112.797 0H124.727C124.732 0.0157986 124.737 0.0315971 124.743 0.0473957C128.332 0.0767918 132.286 0.208035 136.567 0.350165C158.608 1.08188 189.341 2.10213 223.923 -9L228 11.3735C196.787 31.4482 165.181 46.9991 137.486 44.7908Z" fill="#53549c"/></g></g></g></svg>