<svg viewBox="-36.06382978723404 82.21800000000002 356.17021276595744 368.06399999999996" fill="none" xmlns="http://www.w3.org/2000/svg" xmlns:xlink="http://www.w3.org/1999/xlink" overflow="visible" width="329.78723404255317px" height="340.79999999999995px"><rect id="Blush Background Color" fill="#ded6d6" x="-36.06382978723404" y="82.21800000000002" width="356.17021276595744" height="368.06399999999996"/><g id="Master/Pose/Sitting"><g id="Head/Front" transform="translate(38 73) scale(1 1)"><g id="Head/Front/Short 2"><g id="Head"><path id="SKIN" fill-rule="evenodd" clip-rule="evenodd" d="M73.9354 75.2443C80.411 79.1475 86.7736 81.0333 89.7603 80.2635C97.2496 78.333 97.9382 50.9351 92.1433 40.1339C86.3485 29.3328 56.5583 24.625 55.0568 46.0255C54.5356 53.4529 57.6544 60.0814 62.2623 65.4901L54 104H78L73.9354 75.2443Z" fill="#915b3c"/></g><path id="Hair" fill-rule="evenodd" clip-rule="evenodd" d="M60.4181 70.3075C57.4059 56.9065 48.8245 47.7714 50.1351 41.7817C51.4457 35.792 57.1213 34.3321 57.1213 34.3321C57.1213 34.3321 60.0567 22.4572 76.0556 24.2304C92.0546 26.0036 101.819 32.6478 97.6025 47.2679C93.7261 47.2679 89.0465 45.866 82.5755 48.2679C79.4957 49.411 78.17 55.358 78.17 55.358H75.2458C75.2458 55.358 70.9887 48.3006 66.8508 50.1712C62.7128 52.0418 64.9695 59.2586 64.9695 59.2586L63.5291 70.3075H60.4181Z" fill="#2c1b18"/></g></g><g id="Lower Body/Sitting" transform="translate(-44 260) scale(1 1)"><g id="Lower Body/Sitting/Baggy Pants"><g id="Seat"><path id="Seat_2" fill-rule="evenodd" clip-rule="evenodd" d="M69 42C60.1634 42 53 49.1634 53 58V150C53 158.837 60.1634 166 69 166H184C192.837 166 200 158.837 200 150V58C200 49.1634 192.837 42 184 42H69ZM85 70C82.7909 70 81 71.7909 81 74V134C81 136.209 82.7909 138 85 138H168C170.209 138 172 136.209 172 134V74C172 71.7909 170.209 70 168 70H85Z" fill="#C5CFD6"/></g><path id="SKIN" fill-rule="evenodd" clip-rule="evenodd" d="M299.159 161C279.443 136.924 266.103 119.075 259.138 107.454C247.213 87.5547 237.453 69.8482 234.373 63.0844C227.028 46.9552 251.282 39.4026 256.771 46.9258C265.079 58.3124 282.822 94.143 310 154.417L299.159 161Z" fill="#915b3c"/><path id="LegLower" fill-rule="evenodd" clip-rule="evenodd" d="M258.758 154L222.065 61.6368C214.217 44.7996 252.116 33.7321 257.883 41.5678C270.977 59.3572 302.099 129.534 306 134.834L258.758 154Z" fill="#6b3926"/><path id="SKIN" fill-rule="evenodd" clip-rule="evenodd" d="M161.033 135.477C168.181 125.051 194.179 89.9744 208.339 75.4611C212.408 71.2905 216.379 67.2876 220.134 63.5574C231.296 52.4698 253.524 71.1057 242.382 81.2046C214.635 106.355 174.151 140.307 170.769 143.334C166.028 147.577 156.541 142.029 161.033 135.477Z" fill="#915b3c"/><g id="Left [shoe]"><path id="shoe" fill-rule="evenodd" clip-rule="evenodd" d="M165.664 131.185C164.971 130.241 163.63 130.017 162.734 130.771C161.099 132.146 158.748 134.264 157.899 135.734C156.547 138.076 154.733 143.021 154.733 143.021C157.45 144.59 203.578 171.222 203.578 171.222C203.578 171.222 209.116 166.027 205.304 163.157C201.491 160.286 199.012 158.315 199.012 158.315L182.152 135.087C181.821 134.631 181.179 134.538 180.733 134.882L177.23 137.579C177.23 137.579 172.409 137.159 170.035 135.788C168.589 134.953 166.824 132.767 165.664 131.185Z" fill="#E4E4E4"/></g><g id="Right [shoe]"><path id="shoe_2" fill-rule="evenodd" clip-rule="evenodd" d="M293.45 156.284C292.378 155.813 291.104 156.29 290.705 157.391C289.977 159.398 289 162.409 289 164.106C289 166.811 289.901 172 289.901 172C293.039 172 346.303 172 346.303 172C346.303 172 348.502 164.732 343.765 164.152C339.028 163.573 335.895 163.106 335.895 163.106L309.68 151.419C309.165 151.189 308.563 151.43 308.348 151.951L306.663 156.039C306.663 156.039 302.278 158.085 299.537 158.085C297.868 158.085 295.246 157.074 293.45 156.284Z" fill="#E4E4E4"/></g><path id="Leg and Butt" fill-rule="evenodd" clip-rule="evenodd" d="M208.862 66.2501C208.862 66.2501 163.117 58.7976 147.58 56.0581C118.057 50.8524 109.448 34.9653 114.538 0.302229L168.934 0.302229C179.732 3.42038 259.167 38.8717 259.167 38.8717C268.695 43.6015 266.921 57.5475 265.18 62.1421C265.073 62.4232 216.992 144.713 216.992 144.713L172.494 116.365L208.946 69.5904C208.946 69.5904 210.39 66.682 208.862 66.2501Z" fill="#a46b56"/></g></g><g id="Upper Body" transform="translate(-22 155) scale(1 1)"><g id="Upper Body/Jacket 2"><path id="SKIN" fill-rule="evenodd" clip-rule="evenodd" d="M234.235 61.7042L198 77.6171L209.57 92.4393L236.707 71.6329C250.262 69.1432 256.549 67.0043 255.566 65.2163C254.738 63.7087 253.197 63.6237 251.778 63.5454C250.672 63.4844 249.64 63.4275 249.076 62.7053C247.789 61.056 250.966 55.9611 254.188 51.2552C257.41 46.5492 254.39 46.7192 252.623 47.282C246.711 50.5716 240.582 55.379 234.235 61.7042ZM72 86.0658L51.5083 82C37.6109 118.63 29.3256 138.702 26.6523 142.218C24.692 144.796 12.6026 151.437 4.41982 154.984C1.13535 156.407 1.84055 159.183 2.80388 160.071C8.88024 165.672 14.5292 163.709 20.6783 161.572C22.4585 160.953 24.2806 160.32 26.1672 159.851C31.0502 158.639 32.5361 161.15 33.9404 163.523C35.1837 165.624 36.363 167.616 39.7793 166.821C39.6239 166.151 39.433 165.4 39.227 164.589C37.8952 159.349 35.9312 151.62 38.845 147.13C40.3404 144.826 51.3921 124.471 72 86.0658Z" fill="#915b3c"/><path id="Coat Back" fill-rule="evenodd" clip-rule="evenodd" d="M127.695 5.33206L136.342 3.84889C155.176 22.119 162.862 66.0125 175.414 71.8225C187.281 77.3157 204.104 72 224.1 64.8225L230.223 78.5046C212.055 98.1606 173.349 114.767 157.66 105.287C132.576 90.1298 126.786 35.9937 127.695 5.33206Z" fill="#001150"/><path id="Shirt" fill-rule="evenodd" clip-rule="evenodd" d="M90 114C90 114 142.008 114 166.511 114C170.008 114 169.349 108.952 168.843 106.404C163.011 77.0038 140.241 45.3115 140.241 3.46073L118.172 0C99.9175 29.3584 93.6048 65.5046 90 114Z" fill="#C7D1D9"/><path id="Coat Front" fill-rule="evenodd" clip-rule="evenodd" d="M117 0H116.748C67.2466 30.5044 37.3306 77.7907 27 141.859L43.0374 145C53.6609 132.623 66.7714 112.368 82.3688 84.2332C77.5834 101.181 74.0896 118.563 73 135H141.872C155.205 101.305 125.486 0 125.486 0H120.731H117Z" fill="#1d3c85"/></g></g></g></svg>